Coordinates
version=1
nRows=9
nColumns=63
inDegrees=yes

Units are S.I. units (second, meters, Newtons, ...)
If the header above contains a line with 'inDegrees', this indicates whether rotational values are in degrees (yes) or radians (no).

endheader
time	pelvis_tilt	pelvis_list	pelvis_rotation	pelvis_tx	pelvis_ty	pelvis_tz	hip_flexion_r	hip_adduction_r	hip_rotation_r	knee_angle_r	knee_angle_r_beta	ankle_angle_r	subtalar_angle_r	mtp_angle_r	hip_flexion_l	hip_adduction_l	hip_rotation_l	knee_angle_l	knee_angle_l_beta	ankle_angle_l	subtalar_angle_l	mtp_angle_l	L5_S1_Flex_Ext	L5_S1_Lat_Bending	L5_S1_axial_rotation	L4_L5_Flex_Ext	L4_L5_Lat_Bending	L4_L5_axial_rotation	L3_L4_Flex_Ext	L3_L4_Lat_Bending	L3_L4_axial_rotation	L2_L3_Flex_Ext	L2_L3_Lat_Bending	L2_L3_axial_rotation	L1_L2_Flex_Ext	L1_L2_Lat_Bending	L1_L2_axial_rotation	L1_T12_Flex_Ext	L1_T12_Lat_Bending	L1_T12_axial_rotation	Abs_r3	Abs_r2	Abs_r1	Abs_t1	Abs_t2	neck_flexion	neck_bending	neck_rotation	arm_flex_r	arm_add_r	arm_rot_r	elbow_flex_r	pro_sup_r	wrist_flex_r	wrist_dev_r	arm_flex_l	arm_add_l	arm_rot_l	elbow_flex_l	pro_sup_l	wrist_flex_l	wrist_dev_l
0.750000	-13.981365	7.269318	95.300278	0.190934	0.929302	0.716487	-10.144337	-12.668519	-18.976423	15.062477	0.262890	31.218446	18.186623	0.000000	-7.637264	9.191327	-2.058632	15.234659	0.265895	23.641624	7.279935	0.000000	-1.426242	-2.124492	-5.317470	-2.648673	-2.825575	-5.649812	-2.343172	-5.165490	-5.649812	-1.630052	-5.165490	-4.652787	-1.324408	-4.332264	-4.320445	-0.814954	-3.290838	-3.988103	-10.187501	-24.032680	-29.574175	0.000000	0.000000	8.193827	20.232578	20.295324	54.530105	34.746119	170.291289	0.014411	0.522251	-72.728262	-24.964949	-14.613966	-22.256807	77.185772	10.955119	3.955379	-7.605737	-3.751893
0.766667	-14.744300	8.935501	95.913341	0.191430	0.930706	0.720464	-11.788910	-13.293748	-20.012099	15.677477	0.273624	31.472558	18.233556	0.000000	-9.225818	9.674679	-1.502668	15.607365	0.272400	23.309977	7.095637	0.000000	-1.607927	-2.168907	-5.789545	-2.986082	-2.884646	-6.151391	-2.641664	-5.273481	-6.151391	-1.837700	-5.273481	-5.065852	-1.493121	-4.422835	-4.704005	-0.918770	-3.359637	-4.342159	-11.485264	-24.535111	-32.199712	0.000000	0.000000	6.455652	19.163495	24.300606	60.437590	38.220462	170.193573	0.018874	0.535327	-74.397866	-24.695233	-16.686995	-20.926382	73.058597	11.782986	3.652905	-7.489419	-4.402980
0.783333	-15.518953	10.568612	96.601564	0.191401	0.931660	0.723740	-13.506204	-13.899429	-21.122310	16.252667	0.283663	31.794232	18.288165	0.000000	-10.855296	10.172934	-0.718293	15.976416	0.278841	23.008094	6.638893	0.000000	-1.787502	-2.202439	-6.195784	-3.319570	-2.929244	-6.583021	-2.936687	-5.355011	-6.583021	-2.042936	-5.355011	-5.421311	-1.659875	-4.491214	-5.034075	-1.021379	-3.411578	-4.646838	-12.767949	-24.914434	-34.459093	0.000000	0.000000	4.941144	17.894556	28.000274	66.199536	41.198335	168.961565	0.025218	0.536964	-74.590854	-24.510104	-18.476300	-19.245912	70.008313	12.415612	3.338811	-7.694287	-4.753273
0.800000	-16.207381	12.033448	97.332900	0.190819	0.932272	0.726104	-15.153122	-14.396308	-22.235315	16.713279	0.291702	32.102410	18.341904	0.000000	-12.361483	10.587733	0.019042	16.344015	0.285257	22.811676	6.283841	0.000000	-1.946897	-2.213043	-6.540134	-3.615583	-2.943347	-6.948892	-3.198558	-5.380792	-6.948892	-2.225109	-5.380792	-5.722617	-1.807889	-4.512837	-5.313859	-1.112457	-3.428003	-4.905100	-13.906494	-25.034382	-36.374261	0.000000	0.000000	3.723058	16.376913	31.286665	71.604415	43.705964	166.769293	0.031687	0.530541	-73.120567	-24.595703	-19.911704	-17.303776	67.699279	12.925622	3.094826	-8.946883	-4.792011
0.816667	-16.765917	13.234655	98.079071	0.189761	0.932721	0.727411	-16.624867	-14.748781	-23.306388	17.010392	0.296887	32.325591	18.387674	0.000000	-13.654802	10.905571	0.781964	16.646211	0.290531	22.639515	5.904527	0.000000	-2.072241	-2.196771	-6.833946	-3.848358	-2.921705	-7.261067	-3.404484	-5.341229	-7.261067	-2.368364	-5.341229	-5.979703	-1.924283	-4.479655	-5.552581	-1.184078	-3.402798	-5.125459	-14.801807	-24.850311	-38.008356	0.000000	0.000000	2.858346	14.625699	34.101279	76.471772	45.844968	164.212450	0.035189	0.518166	-70.601327	-24.782811	-21.184033	-15.238324	65.566183	13.407280	2.838016	-10.738927	-4.024418
0.833333	-17.157196	14.112268	98.820762	0.188187	0.932917	0.727549	-17.855721	-14.928077	-24.291660	17.127241	0.298927	32.472118	18.426228	0.000000	-14.671099	11.099256	1.531784	16.872609	0.294483	22.543093	5.557946	0.000000	-2.157430	-2.149441	-7.058561	-4.006563	-2.858757	-7.499721	-3.544441	-5.226151	-7.499721	-2.465726	-5.226151	-6.176240	-2.003389	-4.383141	-5.735080	-1.232755	-3.329485	-5.293920	-15.410305	-24.314909	-39.257596	0.000000	0.000000	2.447925	12.625826	36.295866	80.574564	47.580727	162.359279	0.036198	0.519821	-69.951386	-24.821882	-22.179397	-13.235161	63.850003	13.780348	2.519301	-11.002782	-3.064344
0.850000	-17.394980	14.684104	99.523706	0.186301	0.933048	0.726725	-18.836787	-14.948616	-25.159037	17.064419	0.297830	32.509297	18.454048	0.000000	-15.414285	11.185349	2.261376	17.006772	0.296824	22.479784	5.212972	0.000000	-2.203913	-2.078504	-7.233480	-4.092886	-2.764410	-7.685572	-3.620808	-5.053674	-7.685572	-2.518852	-5.053674	-6.329295	-2.046553	-4.238485	-5.877202	-1.259316	-3.219602	-5.425110	-15.742327	-23.512449	-40.230445	0.000000	0.000000	2.401726	10.560553	37.945268	83.965333	48.962310	161.019284	0.036223	0.527914	-69.934332	-24.741565	-23.071643	-11.495944	62.677230	14.481280	1.952062	-9.056279	-2.134610
0.866667	-17.502723	15.020991	100.163293	0.184314	0.933286	0.725312	-19.604346	-14.836799	-25.885337	16.843103	0.293968	32.420159	18.462302	0.000000	-15.930535	11.174706	2.876889	17.058097	0.297720	22.431668	4.980789	0.000000	-2.219887	-1.994224	-7.384660	-4.122552	-2.652317	-7.846201	-3.647052	-4.848755	-7.846201	-2.537108	-4.848755	-6.461577	-2.061387	-4.066621	-6.000036	-1.268443	-3.089052	-5.538495	-15.856429	-22.559055	-41.071261	0.000000	0.000000	2.554032	8.600400	39.199460	86.702911	50.100693	160.084916	0.035795	0.535954	-69.932770	-24.740167	-24.111222	-10.107690	61.370557	16.072730	0.607684	-4.922969	-0.813550
0.883333	-17.502245	15.192454	100.716455	0.182310	0.933663	0.723656	-20.189672	-14.626370	-26.462234	16.512121	0.288191	32.223892	18.461171	0.000000	-16.267635	11.092909	3.392042	17.043344	0.297462	22.383471	4.805896	0.000000	-2.213789	-1.903782	-7.526322	-4.111228	-2.532030	-7.996717	-3.637034	-4.628855	-7.996717	-2.530140	-4.628855	-6.585532	-2.055725	-3.882192	-6.115137	-1.264959	-2.948958	-5.644742	-15.812874	-21.535960	-41.859145	0.000000	0.000000	2.776218	6.816312	40.219311	88.835396	51.085253	159.574953	0.035129	0.543080	-69.934070	-24.754605	-25.395446	-9.037192	59.912953	18.807399	-2.452229	0.995787	0.281479
